.
..............................Site Info...........................

 -   http://www.scenetime.com  *_*   


Scenetime .Always on time . friendly online private torrent community ..

     We care to share . Join us on  http://www.scenetime.com 

    Be the first to get new release at  http://www.scenetime.com

        Seed back for speed


...................................NFO:.................................................[align=center] [img]http://i.imgur.com/5SbaP.jpg[/img]

[b]BattleShip.2012.TS.XViD.AC3-ADTRG[/b]

A fleet of ships is forced to do battle with an armada of unknown origins in order to discover and thwart their destructive goals.  

[url]http://www.imdb.com/title/tt1440129/[/url]

Source -  720p Cam             SMY                Thanks
Source -  missing scenes  -    Twix               Thanks
Source -  LiNe Audio      -    Dragon Exclusive   Thanks, awesome work bro

Complete name                            : BattleShip.2012.TS.XViD.AC3-ADTRG.avi
Format                                   : AVI
Format/Info                              : Audio Video Interleave
File size                                : 1.53 GiB
Duration                                 : 2h 1mn
Overall bit rate                         : 1 800 Kbps
Writing library                          : VirtualDub build 34703/release

Video
ID                                       : 0
Format                                   : MPEG-4 Visual
Codec ID                                 : XVID
Bit rate                                 : 1 598 Kbps
Width                                    : 720 pixels
Height                                   : 320 pixels
Display aspect ratio                     : 2.25:1
Frame rate                               : 30.000 fps
Stream size                              : 1.36 GiB (89%)

Audio
ID                                       : 1
Format                                   : AC-3
Bit rate                                 : 192 Kbps
Channel(s)                               : 2 channels
Channel positions                        : Front: L R
Stream size                              : 165 MiB (11%)



[b]Encoder - Jiinx[/b]
alittle of this and a little of that and bingo, cleaned and resized video, added missing scenes, synced audio got some boom boom.
had some more boom boom, thank you girlfriend ;). 
let the recodes begin ;)


Good things come in small packages, So feel the wrath of my compression

[img]http://i.imgur.com/wfpy0.jpg[/img]
[img]http://i.imgur.com/88fvE.jpg[/img]


[IMG]http://i.imgur.com/2739o.gif?1?8830[/IMG]

Dont fear the Atomic Dragon, Embrace it  :)


Greetz to DragonMaster,cOOkies,Coder,Mr Geek,LiMeY,DBratt420,AnimeKing,Cush,NoWoRRiEs Rayne, Mr & Mrs IrNbRu and the rest of the crew

Respect to CM8,Goon,Hope,mSD,InfernO,legend-rg and maybe a few more ;)




[/align]